<?xml version="1.0" encoding="UTF-8" standalone="no"?>
<!DOCTYPE svg PUBLIC "-//W3C//DTD SVG 20010904//EN"
              "http://www.w3.org/TR/2001/REC-SVG-20010904/DTD/svg10.dtd">

<svg xmlns="http://www.w3.org/2000/svg"
     width="1.86667in" height="0.533333in"
     viewBox="0 0 560 160">
  <path id="Selection"
        fill="#434343" stroke="black" stroke-width="0"
        d="M 105.83,26.00
           C 128.74,51.58 123.45,97.21 93.00,114.66
             80.07,122.08 73.27,122.16 59.00,122.00
             51.76,121.91 45.47,119.89 39.00,116.74
             14.07,104.59 3.50,76.19 9.90,50.00
             15.26,28.06 31.14,13.32 53.00,8.46
             73.16,5.68 91.92,10.47 105.83,26.00 Z
           M 297.57,12.31
           C 301.34,16.20 300.64,24.42 293.00,25.62
             283.66,27.08 279.21,15.75 287.11,10.74
             290.68,9.84 294.73,9.38 297.57,12.31 Z
           M 253.00,17.00
           C 253.00,17.00 253.00,45.00 253.00,45.00
             253.00,45.00 269.00,45.00 269.00,45.00
             269.00,45.00 269.00,55.00 269.00,55.00
             269.00,55.00 253.00,55.00 253.00,55.00
             253.00,55.00 253.00,120.00 253.00,120.00
             253.00,120.00 241.00,120.00 241.00,120.00
             241.00,120.00 241.00,55.00 241.00,55.00
             241.00,55.00 228.00,55.00 228.00,55.00
             228.00,55.00 228.00,45.00 228.00,45.00
             228.00,45.00 241.00,45.00 241.00,45.00
             241.00,45.00 241.00,17.00 241.00,17.00
             241.00,17.00 253.00,17.00 253.00,17.00 Z
           M 23.46,46.00
           C 10.30,77.25 33.38,115.36 69.00,110.71
             108.73,105.53 121.83,54.31 91.96,29.09
             87.39,25.23 82.71,22.78 77.00,21.04
             70.68,19.11 65.55,18.67 59.00,19.29
             42.96,21.95 29.95,30.58 23.46,46.00 Z
           M 181.00,44.00
           C 186.50,44.03 190.91,44.59 196.00,46.90
             228.89,61.82 224.07,121.50 182.00,122.00
             167.75,122.16 161.74,121.21 151.00,111.00
             151.00,111.00 151.00,156.00 151.00,156.00
             151.00,156.00 139.00,156.00 139.00,156.00
             139.00,156.00 139.00,45.00 139.00,45.00
             139.00,45.00 151.00,45.00 151.00,45.00
             151.00,45.00 151.00,56.00 151.00,56.00
             161.52,45.72 166.65,43.93 181.00,44.00 Z
           M 372.00,46.46
           C 390.13,53.62 395.21,68.06 395.00,86.00
             394.89,94.89 391.80,103.33 385.82,109.99
             376.38,120.49 366.29,122.15 353.00,122.00
             323.75,121.65 307.79,88.95 320.38,64.00
             325.72,53.40 334.82,47.52 346.00,44.52
             353.66,43.30 364.74,43.60 372.00,46.46 Z
           M 438.00,46.35
           C 443.51,43.84 448.12,43.93 454.00,44.00
             464.85,44.13 473.88,49.66 477.93,60.00
             481.46,69.03 481.00,77.58 481.00,87.00
             481.00,87.00 481.00,120.00 481.00,120.00
             481.00,120.00 469.00,120.00 469.00,120.00
             469.00,120.00 469.00,78.00 469.00,78.00
             468.92,71.43 467.65,65.01 462.81,60.19
             453.88,51.28 438.53,55.50 431.80,65.00
             427.96,70.43 427.03,76.53 427.00,83.00
             427.00,83.00 427.00,120.00 427.00,120.00
             427.00,120.00 415.00,120.00 415.00,120.00
             415.00,120.00 415.00,45.00 415.00,45.00
             415.00,45.00 427.00,45.00 427.00,45.00
             427.00,45.00 427.00,55.00 427.00,55.00
             430.63,51.41 433.25,48.51 438.00,46.35 Z
           M 508.31,98.99
           C 510.61,100.68 511.24,106.19 518.00,109.43
             529.73,115.05 546.25,105.73 539.26,95.04
             535.40,89.14 528.23,88.60 522.00,87.12
             510.52,84.38 501.90,80.11 501.09,67.00
             500.41,55.96 507.18,47.02 518.00,44.53
             520.86,43.87 525.01,43.97 528.00,44.00
             540.89,44.16 548.83,51.03 550.00,64.00
             547.69,64.00 542.17,64.24 540.26,63.40
             537.42,62.16 536.62,58.80 532.00,56.45
             522.85,51.81 511.87,59.59 513.47,66.99
             515.03,74.20 526.04,75.80 532.00,77.23
             545.27,80.42 554.04,87.27 552.91,102.00
             551.70,117.64 537.28,122.15 524.00,122.00
             519.60,121.94 516.04,121.54 512.00,119.60
             502.52,115.04 499.09,108.07 499.00,98.00
             501.37,98.00 506.43,97.62 508.31,98.99 Z
           M 297.00,45.00
           C 297.00,45.00 297.00,120.00 297.00,120.00
             297.00,120.00 285.00,120.00 285.00,120.00
             285.00,120.00 285.00,45.00 285.00,45.00
             285.00,45.00 297.00,45.00 297.00,45.00 Z
           M 159.46,62.52
           C 144.40,76.97 149.14,108.64 178.00,110.82
             181.38,111.07 184.80,110.31 188.00,109.25
             212.90,101.01 210.69,64.59 188.00,56.76
             183.61,55.24 180.59,54.90 176.00,55.29
             169.40,56.38 164.48,57.71 159.46,62.52 Z
           M 335.33,63.18
           C 317.98,81.60 332.47,114.76 360.00,110.70
             386.44,106.81 392.79,71.48 370.00,58.53
             364.49,55.40 358.20,54.69 352.00,55.30
             345.79,56.47 339.80,58.44 335.33,63.18 Z" />
</svg>
